<?xml version="1.0" encoding="utf-8"?>
<!-- Generator: Adobe Illustrator 16.0.0, SVG Export Plug-In . SVG Version: 6.00 Build 0)  -->
<!DOCTYPE svg PUBLIC "-//W3C//DTD SVG 1.1//EN" "http://www.w3.org/Graphics/SVG/1.1/DTD/svg11.dtd">
<svg version="1.1" id="Layer_1" xmlns="http://www.w3.org/2000/svg" xmlns:xlink="http://www.w3.org/1999/xlink" x="0px" y="0px"
	 width="64px" height="80px" viewBox="0 0 64 80" enable-background="new 0 0 64 80" xml:space="preserve">
<g>
	<path fill="#333333" d="M61.055,68.879c0,2.529-1.034,3.998-3.055,4.777c-7.853,3.032-17.152,4.594-25.998,4.594
		c-8.848,0-18.147-1.562-26-4.594c-2.021-0.779-3.057-2.248-3.057-4.777V1.75h58.109V68.879L61.055,68.879z"/>
	<g>
		<path fill="none" d="M50.688,39.881l5.059-0.27c-0.131-1.147-0.457-2.238-0.945-3.236l-4.209-0.19
			C50.756,37.504,50.773,38.739,50.688,39.881z"/>
		<path fill="none" d="M28.004,19.701c0.43,0.21,0.969,0.32,1.563,0.277c0.86-0.061,1.397-0.578,1.701-0.969
			C29.737,18.674,28.883,18.864,28.004,19.701z"/>
		<path fill="none" d="M31.803,25.47c-1.486-0.021-3.998,0.665-5.213,0.851c0.545,0.372,2.473,1.604,3.793,2.446l4.316-2.593
			C33.853,25.755,32.916,25.486,31.803,25.47z"/>
		<path fill="none" d="M38.086,35.063l3.598-0.189c0.129-1.598,0.339-2.662,0.458-3.212C40.381,32.451,39.168,33.523,38.086,35.063z
			"/>
		<path fill="none" d="M32.247,64.09c-0.848,0-1.969,0-1.969,0v5.92c0,0,1.371,0,2.063,0c2.295,0,3.651-0.883,3.652-3.078
			C35.994,64.898,34.953,64.09,32.247,64.09z"/>
		<path fill="none" d="M15.992,58.264c-0.98,0-2.252,0-2.252,0v5.381c0,0,0.949,0,1.773,0c2.052,0,3.332-1.057,3.332-2.836
			C18.846,58.814,17.867,58.264,15.992,58.264z"/>
		<path fill="none" d="M34.924,60.371c0-1.752-1.112-2.107-2.748-2.107c-0.982,0-1.897,0-1.899,0v4.484c0,0,0.64,0,1.462,0
			C33.436,62.748,34.924,62.233,34.924,60.371z"/>
		<path fill="none" d="M43.299,35.851c-0.354,1.559-0.582,3.074-0.691,4.458l6.265-0.33c-0.052-1.438-0.229-2.746-0.473-3.895
			L43.299,35.851z"/>
		<path fill="none" d="M55.762,41.721l-5.256-0.301c-0.235,1.477-0.627,2.756-1.047,3.805l5.646-0.707
			C55.467,43.637,55.699,42.791,55.762,41.721z"/>
		<path fill="none" d="M45.883,30.81c-0.354,0-0.715,0.049-1.06,0.083c-0.511,1.279-0.926,2.571-1.267,3.88l4.455-0.246
			c-0.527-1.826-1.157-3.1-1.487-3.696C46.312,30.815,46.098,30.81,45.883,30.81z"/>
		<path fill="none" d="M53.377,34.228c-1.063-1.223-2.42-2.183-3.961-2.771c0.379,1.015,0.663,1.996,0.868,2.942L53.377,34.228z"/>
		<path fill="none" d="M50.256,28.202l-0.929-1.238l0.155-0.273l2.605,1.406l-0.568,1.726c0.419,0.203,0.806,0.458,1.322,0.802
			l1.684-2.771L50.17,25.57h-9.634l-7.817,4.711c1.47,1.021,2.818,2.125,3.779,3.237c2.096-3.055,5.774-5,9.42-5
			c1.191-0.001,2.579,0.124,3.739,0.521L50.256,28.202z"/>
		<path fill="#FFFFFF" d="M12.852,41.942c3.156,2.371,5.309,5.142,6.55,8.039h0.448v-3.287c4.268,2.421,8.025,4.703,9.876,8.777
			h0.448c-0.726-4.222-3.11-7.478-11.644-12.812c-8.045-5.032-10.704-7.256-10.929-10.559c-0.038-0.67,0.115-1.798,0.394-2.605
			l-0.757-0.505c-0.605,0.967-0.993,2.24-0.993,3.411c0,1.907,0.607,3.35,1.356,4.504C8.731,38.647,9.92,39.743,12.852,41.942z"/>
		<path fill="#FFFFFF" d="M53.439,49.494c3.402-2.724,4.454-6.383,4.454-9.22c0-3.129-1.253-5.94-3.107-7.948
			c0.662-1.099,1.914-3.156,2.075-3.419c0.256-0.427,0.391-1.088,0.303-1.611c-0.103-0.625-0.365-1.05-1.033-1.403
			c-0.762-0.398-5.371-2.812-5.371-2.812H39.853l-3.886,2.334v-6.771h-1.25c0.379-0.289,0.638-0.612,0.783-0.837l-0.138-0.304
			c-1.345,1.062-2.083,0.986-4.667,0.175c-1.468-0.465-2.762,0.035-3.675,0.742c-0.017-0.136-0.019-0.282,0-0.428
			c0.077-0.7,0.632-1.453,2.583-1.331c1.456,0.09,2.671,0.11,3.088,0.108c1.279-0.004,2.064-0.166,2.586-0.563
			c0.865-0.662,1.025-1.485,1.078-1.942c0.07-0.629,0.111-1.624,0.111-2.364c0-0.84,0-4.393,0-4.393H19.34V4.533h-4.403
			c-2.789,0-5.095,2.064-5.095,4.775c0,2.603,1.965,4.563,4.569,4.563h0.271v-1.731h-0.271c-1.487,0-2.137-1.221-2.051-2.669
			c0.089-1.509,1.368-2.287,2.479-2.287h2.078v2.976h6.09v1.422h-1.635v0.857l3.415,1.301v-3.58h9.029c0,0,0,1.844,0,2.066
			c0,0.608,0,0.966-0.06,1.317c-0.053,0.288-0.121,0.512-0.34,0.729c-0.213,0.211-0.539,0.277-0.976,0.304
			c-0.586,0.034-2.319,0.069-3.364,0.069c-1.945,0-4.341,0.453-4.341,3.285c0,3.259,2.913,4.147,4.454,4.121
			c1.4-0.022,2.352-0.494,2.822-0.899h1.312v2.065c-1.669-0.594-3.671-0.22-5.833,0.218c-1.499,0.302-3.05,0.521-4.704,0.534
			c-2.811,0.021-5.493-1.999-5.831-5.5l-1.32-0.781c-0.219,3.743,0.992,6.16,4.896,8.166c4.73,2.434,7.911,4.687,9.189,8.737h0.449
			V31.51c3.844,2.471,6.137,4.604,7.157,7.014c0.444,1.043,0.912,2.748,0.978,4.142h0.447c0.264-1.203,0.45-3.819-0.344-6.051
			c-0.129-0.361-0.31-0.691-0.482-1.015l3.693,0.168c-0.066,1.345-0.058,2.904,0.129,4.582l-1.315,0.066v0.428l1.384,0.076
			c0.082,0.611,0.186,1.238,0.32,1.871h0.406c-0.022-0.564-0.015-1.182,0.02-1.83l6.318,0.363c-0.027,1.253-0.154,2.595-0.418,4.021
			l-1.391,0.172v0.271l1.282,0.1c-0.101,0.492-0.22,0.994-0.356,1.508h0.406c0.227-0.386,0.484-0.873,0.742-1.444l5.016,0.387
			c-0.81,1.188-1.734,2.143-2.914,2.891c-0.263,0.016-0.768,0.08-1.01,0.117c-1.265,0.203-8.123,1.248-10.014,1.537
			c-0.202-0.808-0.444-1.509-0.686-2.027c-2.175-4.664-4.783-6.198-17.871-14.988c-4.209-2.828-10.836-7.431-12.804-11.183
			c-0.63-1.2-0.931-2.607-0.929-3.874c0.001-1.372,0.419-2.721,1.226-3.788v-1.246c-1.622,0.868-2.926,3.197-2.894,5.775
			c0.02,1.442,0.16,2.503,0.654,3.815c0.817,2.168,2.228,4.052,5.721,7.206c3.234,2.921,5.504,5.377,6.754,8.666h0.447v-3.317
			c0.804,0.571,1.617,1.153,2.4,1.714h-0.002c2.949,2.113,6.062,5.091,7.479,8.265l0.449-0.002v-3.073
			c5.332,3.584,9.143,6.932,9.978,13.688h0.448c0.226-1.636,0.09-3.375-0.201-4.856h9.011c2.884,0,5.638,0.817,5.638,3.827h0.545
			l1.059-3.605C55.896,50.801,54.937,49.981,53.439,49.494z M29.567,19.979c-0.595,0.043-1.134-0.067-1.563-0.277
			c0.879-0.837,1.733-1.027,3.265-0.691C30.965,19.4,30.428,19.918,29.567,19.979z M54.801,36.375
			c0.488,0.998,0.814,2.089,0.945,3.236l-5.059,0.27c0.086-1.142,0.068-2.377-0.096-3.696L54.801,36.375z M26.59,26.32
			c1.215-0.186,3.727-0.871,5.213-0.851c1.113,0.017,2.05,0.285,2.896,0.704l-4.316,2.593C29.062,27.924,27.135,26.692,26.59,26.32z
			 M41.684,34.874l-3.598,0.189c1.082-1.54,2.295-2.612,4.056-3.401C42.022,32.212,41.812,33.276,41.684,34.874z M42.607,40.309
			c0.109-1.384,0.337-2.899,0.691-4.458l5.101,0.233c0.243,1.148,0.421,2.456,0.473,3.895L42.607,40.309z M43.557,34.772
			c0.341-1.309,0.756-2.601,1.267-3.88c0.345-0.034,0.705-0.083,1.06-0.083c0.215,0,0.429,0.006,0.642,0.021
			c0.33,0.597,0.96,1.87,1.487,3.696L43.557,34.772z M45.918,28.519c-3.646,0-7.324,1.945-9.42,5
			c-0.961-1.112-2.31-2.216-3.779-3.237l7.817-4.711h9.634l4.355,2.282l-1.684,2.771c-0.517-0.344-0.903-0.599-1.322-0.802
			l0.568-1.726l-2.605-1.406l-0.155,0.273l0.929,1.238l-0.599,0.838C48.497,28.643,47.109,28.518,45.918,28.519z M53.377,34.228
			l-3.093,0.172c-0.205-0.946-0.489-1.928-0.868-2.942C50.957,32.045,52.313,33.005,53.377,34.228z M49.459,45.225
			c0.42-1.049,0.812-2.328,1.047-3.805l5.256,0.301c-0.062,1.07-0.295,1.916-0.657,2.797L49.459,45.225z"/>
		<path fill="#FFFFFF" d="M35.469,63.258c1.465-0.238,2.865-1.383,2.865-3.105c0-1.561-0.66-3.27-5.233-3.27c-3.425,0-7.72,0-7.72,0
			v0.125c0.233,0.07,0.602,0.264,0.846,0.5c0.523,0.516,0.697,1.279,0.72,2.299v11.572c0,0,4.233,0,6.397,0
			c3.518,0,6.063-1.342,6.063-4.422C39.409,64.451,37.465,63.389,35.469,63.258z M30.276,58.264c0.002,0,0.917,0,1.899,0
			c1.636,0,2.748,0.355,2.748,2.107c0,1.862-1.488,2.377-3.186,2.377c-0.822,0-1.462,0-1.462,0V58.264z M32.342,70.01
			c-0.692,0-2.063,0-2.063,0v-5.92c0,0,1.121,0,1.969,0c2.706,0,3.747,0.809,3.747,2.842C35.993,69.127,34.637,70.01,32.342,70.01z"
			/>
		<path fill="#FFFFFF" d="M22.26,60.7c0-2.496-1.489-3.814-5.389-3.814c-3.455,0-8.053,0-8.053,0v0.125
			c0.295,0.104,0.627,0.297,0.844,0.514c0.566,0.558,0.732,1.402,0.732,2.554c0,0.004,0,11.305,0,11.305h3.344v-6.426
			c0,0,0.729,0,1.223,0l4.725,6.422h4.167l-5.327-6.816C20.66,63.993,22.26,62.823,22.26,60.7z M15.514,63.645
			c-0.824,0-1.773,0-1.773,0v-5.381c0,0,1.271,0,2.252,0c1.875,0,2.854,0.551,2.854,2.545
			C18.846,62.588,17.565,63.645,15.514,63.645z"/>
		<path fill="#FFFFFF" d="M45.809,64.148c-0.064-4.444,1.871-5.891,4.464-5.891c1.444,0,2.165,0.334,2.657,0.613
			c0.896,0.506,1.166,1.17,1.171,1.176c0.043,0.053,0.14,0.037,0.14,0.037l0.729-2.48c0,0-1.307-0.94-4.418-0.94
			c-4.705,0-8.228,2.375-8.228,7.569c0,5.854,4.195,7.371,7.896,7.371c3.442,0,4.795-1.098,4.795-1.098v-1.697
			c0,0-1.215,1.137-3.823,1.137C49.036,69.945,45.879,68.964,45.809,64.148z"/>
	</g>
</g>
</svg>
