<?xml version="1.0" encoding="utf-8"?>
<!-- Generator: Adobe Illustrator 16.0.0, SVG Export Plug-In . SVG Version: 6.00 Build 0)  -->
<!DOCTYPE svg PUBLIC "-//W3C//DTD SVG 1.1//EN" "http://www.w3.org/Graphics/SVG/1.1/DTD/svg11.dtd">
<svg version="1.1" id="Layer_1" xmlns="http://www.w3.org/2000/svg" xmlns:xlink="http://www.w3.org/1999/xlink" x="0px" y="0px"
	 width="37.547px" height="25px" viewBox="0 0 37.547 25" enable-background="new 0 0 37.547 25" xml:space="preserve">
<g>
	<path fill="#333333" d="M19.078,20.679l-0.174-3.077c0-0.5,0.217-0.5,0.456-0.457c0.237,0.044,3.076,0.521,3.076,0.521
		s-0.336-0.802-0.336-1.105c0-0.39,0.834-0.932,1.745-1.734c0.911-0.801,1.535-1.213,1.535-1.3c0-0.087-0.648-0.065-0.648-0.542
		s0.606-2.253,0.606-2.253s-1.276,0.434-1.624,0.434c-0.346,0-0.889-0.628-0.889-1.127c0,0-1.668,2.102-2.015,1.95
		c-0.348-0.152,0.628-4.268,0.628-4.268s-0.998,0.845-1.347,0.737c-0.344-0.109-1.318-2.514-1.318-2.514s-0.016-0.031-0.033-0.031
		c-0.023,0-0.039,0.031-0.039,0.031s-0.974,2.405-1.32,2.514c-0.349,0.108-1.346-0.737-1.346-0.737s0.977,4.116,0.63,4.268
		c-0.348,0.151-2.015-1.95-2.015-1.95c0,0.499-0.542,1.127-0.889,1.127c-0.346,0-1.625-0.434-1.625-0.434s0.606,1.777,0.606,2.253
		s-0.649,0.455-0.649,0.542c0,0.086,0.628,0.499,1.539,1.3c0.91,0.802,1.744,1.344,1.744,1.734c0,0.303-0.336,1.105-0.336,1.105
		s2.841-0.477,3.076-0.521c0.238-0.043,0.456-0.043,0.456,0.457l-0.175,3.077H19.078z"/>
	<rect x="2.022" y="2.312" fill="#333333" width="8.447" height="22"/>
	<rect x="27.077" y="2.312" fill="#333333" width="8.446" height="22"/>
</g>
</svg>
